<?xml version="1.0" encoding="UTF-8" standalone="no"?><!DOCTYPE svg PUBLIC "-//W3C//DTD SVG 1.1//EN" "http://www.w3.org/Graphics/SVG/1.1/DTD/svg11.dtd"><!-- Generated by graphviz version 2.40.1 (20161225.0304)
 --><!-- Title: G Pages: 1 --><svg xmlns="http://www.w3.org/2000/svg" xmlns:xlink="http://www.w3.org/1999/xlink" width="894pt" height="380pt" viewBox="0.00 0.00 893.72 380.00">
<g id="graph0" class="graph" transform="scale(1 1) rotate(0) translate(4 376)">
<title>G</title>
<polygon fill="#ffffff" stroke="transparent" points="-4,4 -4,-376 889.7248,-376 889.7248,4 -4,4"/>
<g id="clust1" class="cluster">
<title>cluster_block</title>
<polygon fill="none" stroke="#000000" points="8,-8 8,-364 877.7248,-364 877.7248,-8 8,-8"/>
<text text-anchor="middle" x="442.8624" y="-347.4" font-family="Times,serif" font-size="14.00" fill="#000000">block</text>
</g>
<g id="clust2" class="cluster">
<title>cluster_availableheader</title>
<polygon fill="none" stroke="#000000" points="384.3298,-48 384.3298,-139 517.2688,-139 517.2688,-48 384.3298,-48"/>
<text text-anchor="middle" x="450.7993" y="-122.4" font-family="Times,serif" font-size="14.00" fill="#000000">availableDataHeader</text>
</g>
<g id="clust3" class="cluster">
<title>cluster_body</title>
<polygon fill="none" stroke="#000000" points="687.588,-60 687.588,-201 869.7248,-201 869.7248,-60 687.588,-60"/>
<text text-anchor="middle" x="778.6564" y="-184.4" font-family="Times,serif" font-size="14.00" fill="#000000">availableData</text>
</g>
<g id="clust4" class="cluster">
<title>cluster_lastcommit</title>
<polygon fill="none" stroke="#000000" points="401.6296,-159 401.6296,-237 498.969,-237 498.969,-159 401.6296,-159"/>
<text text-anchor="middle" x="450.2993" y="-220.4" font-family="Times,serif" font-size="14.00" fill="#000000">lastCommit</text>
</g>
<g id="clust5" class="cluster">
<title>cluster_header</title>
<polygon fill="none" stroke="#000000" points="16,-16 16,-331 237.693,-331 237.693,-16 16,-16"/>
<text text-anchor="middle" x="126.8465" y="-314.4" font-family="Times,serif" font-size="14.00" fill="#000000">header</text>
</g>
<!-- struct4 -->
<g id="node1" class="node">
<title>struct4</title>
<polygon fill="none" stroke="#000000" points="405.3298,-56.2 405.3298,-105.8 495.2688,-105.8 495.2688,-56.2 405.3298,-56.2"/>
<text text-anchor="middle" x="415.0798" y="-76.8" font-family="Times,serif" font-size="14.00" fill="#000000"> </text>
<polyline fill="none" stroke="#000000" points="424.8298,-56.2 424.8298,-105.8 "/>
<text text-anchor="middle" x="460.0493" y="-89.2" font-family="Times,serif" font-size="14.00" fill="#000000">rowRoots</text>
<polyline fill="none" stroke="#000000" points="424.8298,-81 495.2688,-81 "/>
<text text-anchor="middle" x="460.0493" y="-64.4" font-family="Times,serif" font-size="14.00" fill="#000000">colRoots</text>
</g>
<!-- struct3 -->
<g id="node2" class="node">
<title>struct3</title>
<polygon fill="none" stroke="#000000" points="695.588,-68.4 695.588,-167.6 861.7248,-167.6 861.7248,-68.4 695.588,-68.4"/>
<text text-anchor="middle" x="705.338" y="-113.8" font-family="Times,serif" font-size="14.00" fill="#000000"> </text>
<polyline fill="none" stroke="#000000" points="715.088,-68.4 715.088,-167.6 "/>
<text text-anchor="middle" x="788.4064" y="-151" font-family="Times,serif" font-size="14.00" fill="#000000">transactionData</text>
<polyline fill="none" stroke="#000000" points="715.088,-142.8 861.7248,-142.8 "/>
<text text-anchor="middle" x="788.4064" y="-126.2" font-family="Times,serif" font-size="14.00" fill="#000000">intermediateStateRoots</text>
<polyline fill="none" stroke="#000000" points="715.088,-118 861.7248,-118 "/>
<text text-anchor="middle" x="788.4064" y="-101.4" font-family="Times,serif" font-size="14.00" fill="#000000">payForBlobData</text>
<polyline fill="none" stroke="#000000" points="715.088,-93.2 861.7248,-93.2 "/>
<text text-anchor="middle" x="788.4064" y="-76.6" font-family="Times,serif" font-size="14.00" fill="#000000">messageData</text>
</g>
<!-- struct4&#45;&gt;struct3 -->
<g id="edge3" class="edge">
<title>struct4:f0-&gt;struct3</title>
<path fill="none" stroke="#000000" d="M415.2993,-106C415.2993,-109.3793 655.2117,-109.2556 658.588,-109.4 667.2351,-109.7698 676.2267,-110.245 685.225,-110.7819"/>
<polygon fill="#000000" stroke="#000000" points="685.1716,-114.2852 695.3694,-111.4118 685.6056,-107.2987 685.1716,-114.2852"/>
<text text-anchor="middle" x="605.9284" y="-130" font-family="Times,serif" font-size="14.00" fill="#000000">NMT roots to</text>
<text text-anchor="middle" x="605.9284" y="-113.2" font-family="Times,serif" font-size="14.00" fill="#000000">erasure-coded data</text>
</g>
<!-- struct2 -->
<g id="node3" class="node">
<title>struct2</title>
<polygon fill="none" stroke="#000000" points="409.6296,-168 409.6296,-204 490.969,-204 490.969,-168 409.6296,-168"/>
<text text-anchor="middle" x="450.2993" y="-181.9" font-family="Times,serif" font-size="14.00" fill="#000000">lastCommit</text>
</g>
<!-- struct1 -->
<g id="node4" class="node">
<title>struct1</title>
<polygon fill="none" stroke="#000000" points="24,-24.6 24,-297.4 229.693,-297.4 229.693,-24.6 24,-24.6"/>
<text text-anchor="middle" x="126.8465" y="-280.8" font-family="Times,serif" font-size="14.00" fill="#000000">version</text>
<polyline fill="none" stroke="#000000" points="24,-272.6 229.693,-272.6 "/>
<text text-anchor="middle" x="126.8465" y="-256" font-family="Times,serif" font-size="14.00" fill="#000000">chainID</text>
<polyline fill="none" stroke="#000000" points="24,-247.8 229.693,-247.8 "/>
<text text-anchor="middle" x="126.8465" y="-231.2" font-family="Times,serif" font-size="14.00" fill="#000000">height</text>
<polyline fill="none" stroke="#000000" points="24,-223 229.693,-223 "/>
<text text-anchor="middle" x="126.8465" y="-206.4" font-family="Times,serif" font-size="14.00" fill="#000000">timestamp</text>
<polyline fill="none" stroke="#000000" points="24,-198.2 229.693,-198.2 "/>
<text text-anchor="middle" x="126.8465" y="-181.6" font-family="Times,serif" font-size="14.00" fill="#000000">lastHeaderHash</text>
<polyline fill="none" stroke="#000000" points="24,-173.4 229.693,-173.4 "/>
<text text-anchor="middle" x="126.8465" y="-156.8" font-family="Times,serif" font-size="14.00" fill="#000000">lastCommitHash</text>
<polyline fill="none" stroke="#000000" points="24,-148.6 229.693,-148.6 "/>
<text text-anchor="middle" x="126.8465" y="-132" font-family="Times,serif" font-size="14.00" fill="#000000">consensusHash</text>
<polyline fill="none" stroke="#000000" points="24,-123.8 229.693,-123.8 "/>
<text text-anchor="middle" x="126.8465" y="-107.2" font-family="Times,serif" font-size="14.00" fill="#000000">stateCommitment</text>
<polyline fill="none" stroke="#000000" points="24,-99 229.693,-99 "/>
<text text-anchor="middle" x="126.8465" y="-82.4" font-family="Times,serif" font-size="14.00" fill="#000000">availableDataOriginalSharesUsed</text>
<polyline fill="none" stroke="#000000" points="24,-74.2 229.693,-74.2 "/>
<text text-anchor="middle" x="126.8465" y="-57.6" font-family="Times,serif" font-size="14.00" fill="#000000">availableDataRoot</text>
<polyline fill="none" stroke="#000000" points="24,-49.4 229.693,-49.4 "/>
<text text-anchor="middle" x="126.8465" y="-32.8" font-family="Times,serif" font-size="14.00" fill="#000000">proposerAddress</text>
</g>
<!-- struct1&#45;&gt;struct4 -->
<g id="edge2" class="edge">
<title>struct1:f9-&gt;struct4</title>
<path fill="none" stroke="#000000" d="M229.8465,-62C286.3341,-62 350.6636,-68.2687 395.1892,-73.6047"/>
<polygon fill="#000000" stroke="#000000" points="394.8697,-77.0916 405.2206,-74.8312 395.7193,-70.1434 394.8697,-77.0916"/>
<text text-anchor="middle" x="307.5114" y="-72.2" font-family="Times,serif" font-size="14.00" fill="#000000">Merkle root of</text>
</g>
<!-- struct1&#45;&gt;struct4 -->
<!-- struct1&#45;&gt;struct3 -->
<!-- struct1&#45;&gt;struct2 -->
<g id="edge1" class="edge">
<title>struct1:f5-&gt;struct2</title>
<path fill="none" stroke="#000000" d="M229.8465,-161C288.2729,-161 354.8579,-169.7769 399.4211,-176.9298"/>
<polygon fill="#000000" stroke="#000000" points="398.9856,-180.405 409.4197,-178.5669 400.1167,-173.497 398.9856,-180.405"/>
</g>
</g>
</svg>
