<?xml version="1.0" encoding="UTF-8" standalone="no"?><!DOCTYPE svg PUBLIC "-//W3C//DTD SVG 1.1//EN" "http://www.w3.org/Graphics/SVG/1.1/DTD/svg11.dtd"><!-- Generated by graphviz version 2.40.1 (20161225.0304)
 --><!-- Title: G Pages: 1 --><svg xmlns="http://www.w3.org/2000/svg" xmlns:xlink="http://www.w3.org/1999/xlink" width="750pt" height="59pt" viewBox="0.00 0.00 750.00 59.00">
<g id="graph0" class="graph" transform="scale(1 1) rotate(0) translate(4 55)">
<title>G</title>
<polygon fill="#ffffff" stroke="transparent" points="-4,4 -4,-55 746,-55 746,4 -4,4"/>
<!-- share -->
<g id="node1" class="node">
<title>share</title>
<polygon fill="none" stroke="#000000" stroke-width="0" points="0,-.5 0,-50.5 742,-50.5 742,-.5 0,-.5"/>
<text text-anchor="start" x="8" y="-33.9" font-family="Times,serif" font-size="14.00" fill="#000000">0</text>
<text text-anchor="start" x="124" y="-33.9" font-family="Times,serif" font-size="14.00" fill="#000000">1</text>
<text text-anchor="start" x="209" y="-33.9" font-family="Times,serif" font-size="14.00" fill="#000000">29</text>
<text text-anchor="start" x="269" y="-33.9" font-family="Times,serif" font-size="14.00" fill="#000000">30</text>
<text text-anchor="start" x="359" y="-33.9" font-family="Times,serif" font-size="14.00" fill="#000000">34</text>
<text text-anchor="start" x="459" y="-33.9" font-family="Times,serif" font-size="14.00" fill="#000000">80</text>
<text text-anchor="start" x="513" y="-33.9" font-family="Times,serif" font-size="14.00" fill="#000000">81</text>
<text text-anchor="start" x="613" y="-33.9" font-family="Times,serif" font-size="14.00" fill="#000000">200</text>
<text text-anchor="start" x="713" y="-33.9" font-family="Times,serif" font-size="14.00" fill="#000000">512</text>
<polygon fill="none" stroke="#000000" points="8,-4.5 8,-30.5 124,-30.5 124,-4.5 8,-4.5"/>
<text text-anchor="start" x="12.9407" y="-12.9" font-family="Times,serif" font-size="14.00" fill="#000000">namespace version</text>
<polygon fill="none" stroke="#000000" points="124,-4.5 124,-30.5 209,-30.5 209,-4.5 124,-4.5"/>
<text text-anchor="start" x="128.6006" y="-12.9" font-family="Times,serif" font-size="14.00" fill="#000000">namespace id</text>
<polygon fill="none" stroke="#000000" points="209,-4.5 209,-30.5 269,-30.5 269,-4.5 209,-4.5"/>
<text text-anchor="start" x="213.9218" y="-12.9" font-family="Times,serif" font-size="14.00" fill="#000000">info byte</text>
<polygon fill="none" stroke="#000000" points="269,-4.5 269,-30.5 359,-30.5 359,-4.5 269,-4.5"/>
<text text-anchor="start" x="273.7703" y="-12.9" font-family="Times,serif" font-size="14.00" fill="#000000">reserved bytes</text>
<polygon fill="none" stroke="#000000" points="359,-4.5 359,-30.5 459,-30.5 459,-4.5 359,-4.5"/>
<text text-anchor="start" x="380.6171" y="-12.9" font-family="Times,serif" font-size="14.00" fill="#000000">end of tx2</text>
<polygon fill="none" stroke="#000000" points="459,-4.5 459,-30.5 513,-30.5 513,-4.5 459,-4.5"/>
<text text-anchor="start" x="463.8415" y="-12.9" font-family="Times,serif" font-size="14.00" fill="#000000">len(tx3)</text>
<polygon fill="none" stroke="#000000" points="513,-4.5 513,-30.5 613,-30.5 613,-4.5 513,-4.5"/>
<text text-anchor="start" x="554.0547" y="-12.9" font-family="Times,serif" font-size="14.00" fill="#000000">tx3</text>
<polygon fill="none" stroke="#000000" points="613,-4.5 613,-30.5 713,-30.5 713,-4.5 613,-4.5"/>
<text text-anchor="start" x="626.0722" y="-12.9" font-family="Times,serif" font-size="14.00" fill="#000000">zero-padding</text>
</g>
</g>
</svg>