<?xml version="1.0" encoding="UTF-8" standalone="no"?><!DOCTYPE svg PUBLIC "-//W3C//DTD SVG 1.1//EN" "http://www.w3.org/Graphics/SVG/1.1/DTD/svg11.dtd"><!-- Generated by graphviz version 2.40.1 (20161225.0304)
 --><!-- Title: G Pages: 1 --><svg xmlns="http://www.w3.org/2000/svg" xmlns:xlink="http://www.w3.org/1999/xlink" width="687pt" height="59pt" viewBox="0.00 0.00 687.00 59.00">
<g id="graph0" class="graph" transform="scale(1 1) rotate(0) translate(4 55)">
<title>G</title>
<polygon fill="#ffffff" stroke="transparent" points="-4,4 -4,-55 683,-55 683,4 -4,4"/>
<!-- share -->
<g id="node1" class="node">
<title>share</title>
<polygon fill="none" stroke="#000000" stroke-width="0" points="0,-.5 0,-50.5 679,-50.5 679,-.5 0,-.5"/>
<text text-anchor="start" x="8.5" y="-33.9" font-family="Times,serif" font-size="14.00" fill="#000000">0</text>
<text text-anchor="start" x="93.5" y="-33.9" font-family="Times,serif" font-size="14.00" fill="#000000">8</text>
<text text-anchor="start" x="153.5" y="-33.9" font-family="Times,serif" font-size="14.00" fill="#000000">9</text>
<text text-anchor="start" x="252.5" y="-33.9" font-family="Times,serif" font-size="14.00" fill="#000000">12</text>
<text text-anchor="start" x="342.5" y="-33.9" font-family="Times,serif" font-size="14.00" fill="#000000">14</text>
<text text-anchor="start" x="396.5" y="-33.9" font-family="Times,serif" font-size="14.00" fill="#000000">16</text>
<text text-anchor="start" x="496.5" y="-33.9" font-family="Times,serif" font-size="14.00" fill="#000000">200</text>
<text text-anchor="start" x="550.5" y="-33.9" font-family="Times,serif" font-size="14.00" fill="#000000">202</text>
<text text-anchor="start" x="650.5" y="-33.9" font-family="Times,serif" font-size="14.00" fill="#000000">512</text>
<polygon fill="none" stroke="#000000" points="8.5,-4.5 8.5,-30.5 93.5,-30.5 93.5,-4.5 8.5,-4.5"/>
<text text-anchor="start" x="13.1006" y="-12.9" font-family="Times,serif" font-size="14.00" fill="#000000">namespace id</text>
<polygon fill="none" stroke="#000000" points="93.5,-4.5 93.5,-30.5 153.5,-30.5 153.5,-4.5 93.5,-4.5"/>
<text text-anchor="start" x="98.4218" y="-12.9" font-family="Times,serif" font-size="14.00" fill="#000000">info byte</text>
<polygon fill="none" stroke="#000000" points="153.5,-4.5 153.5,-30.5 252.5,-30.5 252.5,-4.5 153.5,-4.5"/>
<text text-anchor="start" x="158.1006" y="-12.9" font-family="Times,serif" font-size="14.00" fill="#000000">sequence length</text>
<polygon fill="none" stroke="#000000" points="252.5,-4.5 252.5,-30.5 342.5,-30.5 342.5,-4.5 252.5,-4.5"/>
<text text-anchor="start" x="257.2703" y="-12.9" font-family="Times,serif" font-size="14.00" fill="#000000">reserved bytes</text>
<polygon fill="none" stroke="#000000" points="342.5,-4.5 342.5,-30.5 396.5,-30.5 396.5,-4.5 342.5,-4.5"/>
<text text-anchor="start" x="347.3415" y="-12.9" font-family="Times,serif" font-size="14.00" fill="#000000">len(tx1)</text>
<polygon fill="none" stroke="#000000" points="396.5,-4.5 396.5,-30.5 496.5,-30.5 496.5,-4.5 396.5,-4.5"/>
<text text-anchor="start" x="437.5547" y="-12.9" font-family="Times,serif" font-size="14.00" fill="#000000">tx1</text>
<polygon fill="none" stroke="#000000" points="496.5,-4.5 496.5,-30.5 550.5,-30.5 550.5,-4.5 496.5,-4.5"/>
<text text-anchor="start" x="501.3415" y="-12.9" font-family="Times,serif" font-size="14.00" fill="#000000">len(tx2)</text>
<polygon fill="none" stroke="#000000" points="550.5,-4.5 550.5,-30.5 650.5,-30.5 650.5,-4.5 550.5,-4.5"/>
<text text-anchor="start" x="591.5547" y="-12.9" font-family="Times,serif" font-size="14.00" fill="#000000">tx2</text>
</g>
</g>
</svg>