<?xml version="1.0" encoding="UTF-8" standalone="no"?><!DOCTYPE svg PUBLIC "-//W3C//DTD SVG 1.1//EN" "http://www.w3.org/Graphics/SVG/1.1/DTD/svg11.dtd"><!-- Generated by graphviz version 2.40.1 (20161225.0304)
 --><!-- Title: G Pages: 1 --><svg xmlns="http://www.w3.org/2000/svg" xmlns:xlink="http://www.w3.org/1999/xlink" width="629pt" height="59pt" viewBox="0.00 0.00 629.00 59.00">
<g id="graph0" class="graph" transform="scale(1 1) rotate(0) translate(4 55)">
<title>G</title>
<polygon fill="#ffffff" stroke="transparent" points="-4,4 -4,-55 625,-55 625,4 -4,4"/>
<!-- share -->
<g id="node1" class="node">
<title>share</title>
<polygon fill="none" stroke="#000000" stroke-width="0" points="0,-.5 0,-50.5 621,-50.5 621,-.5 0,-.5"/>
<text text-anchor="start" x="8.5" y="-33.9" font-family="Times,serif" font-size="14.00" fill="#000000">0</text>
<text text-anchor="start" x="93.5" y="-33.9" font-family="Times,serif" font-size="14.00" fill="#000000">8</text>
<text text-anchor="start" x="153.5" y="-33.9" font-family="Times,serif" font-size="14.00" fill="#000000">9</text>
<text text-anchor="start" x="238.5" y="-33.9" font-family="Times,serif" font-size="14.00" fill="#000000">10</text>
<text text-anchor="start" x="338.5" y="-33.9" font-family="Times,serif" font-size="14.00" fill="#000000">80</text>
<text text-anchor="start" x="392.5" y="-33.9" font-family="Times,serif" font-size="14.00" fill="#000000">82</text>
<text text-anchor="start" x="492.5" y="-33.9" font-family="Times,serif" font-size="14.00" fill="#000000">200</text>
<text text-anchor="start" x="592.5" y="-33.9" font-family="Times,serif" font-size="14.00" fill="#000000">256</text>
<polygon fill="none" stroke="#000000" points="8.5,-4.5 8.5,-30.5 93.5,-30.5 93.5,-4.5 8.5,-4.5"/>
<text text-anchor="start" x="13.1006" y="-12.9" font-family="Times,serif" font-size="14.00" fill="#000000">namespace id</text>
<polygon fill="none" stroke="#000000" points="93.5,-4.5 93.5,-30.5 153.5,-30.5 153.5,-4.5 93.5,-4.5"/>
<text text-anchor="start" x="98.4218" y="-12.9" font-family="Times,serif" font-size="14.00" fill="#000000">info byte</text>
<polygon fill="none" stroke="#000000" points="153.5,-4.5 153.5,-30.5 238.5,-30.5 238.5,-4.5 153.5,-4.5"/>
<text text-anchor="start" x="158.4926" y="-12.9" font-family="Times,serif" font-size="14.00" fill="#000000">reserved byte</text>
<polygon fill="none" stroke="#000000" points="238.5,-4.5 238.5,-30.5 338.5,-30.5 338.5,-4.5 238.5,-4.5"/>
<text text-anchor="start" x="260.1171" y="-12.9" font-family="Times,serif" font-size="14.00" fill="#000000">end of tx2</text>
<polygon fill="none" stroke="#000000" points="338.5,-4.5 338.5,-30.5 392.5,-30.5 392.5,-4.5 338.5,-4.5"/>
<text text-anchor="start" x="343.3415" y="-12.9" font-family="Times,serif" font-size="14.00" fill="#000000">len(tx3)</text>
<polygon fill="none" stroke="#000000" points="392.5,-4.5 392.5,-30.5 492.5,-30.5 492.5,-4.5 392.5,-4.5"/>
<text text-anchor="start" x="433.5547" y="-12.9" font-family="Times,serif" font-size="14.00" fill="#000000">tx3</text>
<polygon fill="none" stroke="#000000" points="492.5,-4.5 492.5,-30.5 592.5,-30.5 592.5,-4.5 492.5,-4.5"/>
<text text-anchor="start" x="505.5722" y="-12.9" font-family="Times,serif" font-size="14.00" fill="#000000">zero-padding</text>
</g>
</g>
</svg>