<svg viewBox="-96 -96 384 384" style="background-color:white" xmlns="http://www.w3.org/2000/svg">
    <rect fill="#ffffff" stroke="#808080" x="0"   y="0"   width="32" height="32"/>
    <rect fill="#ffffff" stroke="#808080" x="32"  y="0"   width="32" height="32"/>
    <rect fill="#ffffff" stroke="#808080" x="64"  y="0"   width="32" height="32"/>
    <rect fill="#ffffff" stroke="#808080" x="96"  y="0"   width="32" height="32"/>
    <rect fill="#ffffff" stroke="#808080" x="0"   y="32"  width="32" height="32"/>
    <rect fill="#ffffff" stroke="#808080" x="32"  y="32"  width="32" height="32"/>
    <rect fill="#ffffff" stroke="#808080" x="64"  y="32"  width="32" height="32"/>
    <rect fill="#ffffff" stroke="#808080" x="96"  y="32"  width="32" height="32"/>
    <rect fill="#ffffff" stroke="#808080" x="0"   y="64"  width="32" height="32"/>
    <rect fill="#ffffff" stroke="#808080" x="32"  y="64"  width="32" height="32"/>
    <rect fill="#ffffff" stroke="#808080" x="64"  y="64"  width="32" height="32"/>
    <rect fill="#ffffff" stroke="#808080" x="96"  y="64"  width="32" height="32"/>
    <rect fill="#ffffff" stroke="#808080" x="0"   y="96"  width="32" height="32"/>
    <rect fill="#ffffff" stroke="#808080" x="32"  y="96"  width="32" height="32"/>
    <rect fill="#ffffff" stroke="#808080" x="64"  y="96"  width="32" height="32"/>
    <rect fill="#ffffff" stroke="#808080" x="96"  y="96"  width="32" height="32"/>

    <rect fill="#ffffff" stroke="#808080" x="128" y="0"   width="32" height="32"/>
    <rect fill="#ffffff" stroke="#808080" x="160" y="0"   width="32" height="32"/>
    <rect fill="#ffffff" stroke="#808080" x="192" y="0"   width="32" height="32"/>
    <rect fill="#ffffff" stroke="#808080" x="224" y="0"   width="32" height="32"/>
    <rect fill="#ffffff" stroke="#808080" x="128" y="32"  width="32" height="32"/>
    <rect fill="#ffffff" stroke="#808080" x="160" y="32"  width="32" height="32"/>
    <rect fill="#ffffff" stroke="#808080" x="192" y="32"  width="32" height="32"/>
    <rect fill="#ffffff" stroke="#808080" x="224" y="32"  width="32" height="32"/>
    <rect fill="#ffffff" stroke="#808080" x="128" y="64"  width="32" height="32"/>
    <rect fill="#ffffff" stroke="#808080" x="160" y="64"  width="32" height="32"/>
    <rect fill="#ffffff" stroke="#808080" x="192" y="64"  width="32" height="32"/>
    <rect fill="#ffffff" stroke="#808080" x="224" y="64"  width="32" height="32"/>
    <rect fill="#ffffff" stroke="#808080" x="128" y="96"  width="32" height="32"/>
    <rect fill="#ffffff" stroke="#808080" x="160" y="96"  width="32" height="32"/>
    <rect fill="#ffffff" stroke="#808080" x="192" y="96"  width="32" height="32"/>
    <rect fill="#ffffff" stroke="#808080" x="224" y="96"  width="32" height="32"/>

    <rect fill="#ffffff" stroke="#808080" x="0"   y="128" width="32" height="32"/>
    <rect fill="#ffffff" stroke="#808080" x="32"  y="128" width="32" height="32"/>
    <rect fill="#ffffff" stroke="#808080" x="64"  y="128" width="32" height="32"/>
    <rect fill="#ffffff" stroke="#808080" x="96"  y="128" width="32" height="32"/>
    <rect fill="#ffffff" stroke="#808080" x="0"   y="160" width="32" height="32"/>
    <rect fill="#ffffff" stroke="#808080" x="32"  y="160" width="32" height="32"/>
    <rect fill="#ffffff" stroke="#808080" x="64"  y="160" width="32" height="32"/>
    <rect fill="#ffffff" stroke="#808080" x="96"  y="160" width="32" height="32"/>
    <rect fill="#ffffff" stroke="#808080" x="0"   y="192" width="32" height="32"/>
    <rect fill="#ffffff" stroke="#808080" x="32"  y="192" width="32" height="32"/>
    <rect fill="#ffffff" stroke="#808080" x="64"  y="192" width="32" height="32"/>
    <rect fill="#ffffff" stroke="#808080" x="96"  y="192" width="32" height="32"/>
    <rect fill="#ffffff" stroke="#808080" x="0"   y="224" width="32" height="32"/>
    <rect fill="#ffffff" stroke="#808080" x="32"  y="224" width="32" height="32"/>
    <rect fill="#ffffff" stroke="#808080" x="64"  y="224" width="32" height="32"/>
    <rect fill="#ffffff" stroke="#808080" x="96"  y="224" width="32" height="32"/>

    <rect fill="#ffffff" stroke="#808080" x="128" y="128" width="32" height="32"/>
    <rect fill="#ffffff" stroke="#808080" x="160" y="128" width="32" height="32"/>
    <rect fill="#ffffff" stroke="#808080" x="192" y="128" width="32" height="32"/>
    <rect fill="#ffffff" stroke="#808080" x="224" y="128" width="32" height="32"/>
    <rect fill="#ffffff" stroke="#808080" x="128" y="160" width="32" height="32"/>
    <rect fill="#ffffff" stroke="#808080" x="160" y="160" width="32" height="32"/>
    <rect fill="#ffffff" stroke="#808080" x="192" y="160" width="32" height="32"/>
    <rect fill="#ffffff" stroke="#808080" x="224" y="160" width="32" height="32"/>
    <rect fill="#ffffff" stroke="#808080" x="128" y="192" width="32" height="32"/>
    <rect fill="#ffffff" stroke="#808080" x="160" y="192" width="32" height="32"/>
    <rect fill="#ffffff" stroke="#808080" x="192" y="192" width="32" height="32"/>
    <rect fill="#ffffff" stroke="#808080" x="224" y="192" width="32" height="32"/>
    <rect fill="#ffffff" stroke="#808080" x="128" y="224" width="32" height="32"/>
    <rect fill="#ffffff" stroke="#808080" x="160" y="224" width="32" height="32"/>
    <rect fill="#ffffff" stroke="#808080" x="192" y="224" width="32" height="32"/>
    <rect fill="#ffffff" stroke="#808080" x="224" y="224" width="32" height="32"/>

    <rect fill="none" stroke="#000000" stroke-width="2" x="0" y="0" width="128" height="128"/>
    <rect fill="none" stroke="#000000" stroke-width="2" x="128" y="0" width="128" height="128"/>
    <rect fill="none" stroke="#000000" stroke-width="2" x="0" y="128" width="128" height="128"/>
    <rect fill="none" stroke="#000000" stroke-width="2" x="128" y="128" width="128" height="128"/>

    <text text-anchor="middle" font-size="14" x="-12" y="20">r<tspan font-size="10" baseline-shift = "sub">1</tspan></text>
    <text text-anchor="middle" font-size="14" x="-12" y="116">r<tspan font-size="10" baseline-shift = "sub">k</tspan></text>
    <text text-anchor="middle" font-size="14" x="-12" y="244">r<tspan font-size="10" baseline-shift = "sub">2k</tspan></text>

    <text text-anchor="middle" font-size="14" x="16" y="-10">c<tspan font-size="10" baseline-shift = "sub">1</tspan></text>
    <text text-anchor="middle" font-size="14" x="112" y="-10">c<tspan font-size="10" baseline-shift = "sub">k</tspan></text>
    <text text-anchor="middle" font-size="14" x="240" y="-10">c<tspan font-size="10" baseline-shift = "sub">2k</tspan></text>

    <rect fill="#B0B0B0" stroke="#808080" x="-64" y="0"   width="32" height="32"/>
    <rect fill="#B0B0B0" stroke="#808080" x="-64" y="32"  width="32" height="32"/>
    <rect fill="#B0B0B0" stroke="#808080" x="-64" y="64"  width="32" height="32"/>
    <rect fill="#B0B0B0" stroke="#808080" x="-64" y="96"  width="32" height="32"/>
    <rect fill="#B0B0B0" stroke="#808080" x="-64" y="128" width="32" height="32"/>
    <rect fill="#B0B0B0" stroke="#808080" x="-64" y="160" width="32" height="32"/>
    <rect fill="#B0B0B0" stroke="#808080" x="-64" y="192" width="32" height="32"/>
    <rect fill="#B0B0B0" stroke="#808080" x="-64" y="224" width="32" height="32"/>

    <rect fill="#B0B0B0" stroke="#808080" x="0"   y="-64" width="32" height="32"/>
    <rect fill="#B0B0B0" stroke="#808080" x="32"  y="-64" width="32" height="32"/>
    <rect fill="#B0B0B0" stroke="#808080" x="64"  y="-64" width="32" height="32"/>
    <rect fill="#B0B0B0" stroke="#808080" x="96"  y="-64" width="32" height="32"/>
    <rect fill="#B0B0B0" stroke="#808080" x="128" y="-64" width="32" height="32"/>
    <rect fill="#B0B0B0" stroke="#808080" x="160" y="-64" width="32" height="32"/>
    <rect fill="#B0B0B0" stroke="#808080" x="192" y="-64" width="32" height="32"/>
    <rect fill="#B0B0B0" stroke="#808080" x="224" y="-64" width="32" height="32"/>

    <defs>
        <marker id="arrowhead" viewBox="0 0 32 32" markerWidth="32" marketHeight="32" refX="0" refY="16" orient="auto">
            <polygon fill="#2344CA" stroke-width="0" points="0 0, 32 16, 0 32"/>
        </marker>
    </defs>

    <rect fill="#FFFFFF" stroke-width="0" x="24" y="48" width="80" height="32"/>
    <rect fill="#FFFFFF" stroke-width="0" x="152" y="48" width="80" height="32"/>
    <rect fill="#FFFFFF" stroke-width="0" x="24" y="176" width="80" height="32"/>
    <rect fill="#FFFFFF" stroke-width="0" x="152" y="176" width="80" height="32"/>

    <text text-anchor="middle" font-size="12" x="64" y="64">original data</text>
    <text text-anchor="middle" font-size="12" x="192" y="64">parity data</text>
    <text text-anchor="middle" font-size="12" x="64" y="192">parity data</text>
    <text text-anchor="middle" font-size="12" x="192" y="192">parity data</text>

    <line stroke="#2344CA" stroke-width="8" x1="112" x2="128" y1="64" y2="64" marker-end="url(#arrowhead)"/>
    <line stroke="#2344CA" stroke-width="8" x1="64" x2="64" y1="112" y2="128" marker-end="url(#arrowhead)"/>
    <line stroke="#2344CA" stroke-width="8" x1="112" x2="128" y1="192" y2="192" marker-end="url(#arrowhead)"/>
</svg>
