<?xml version="1.0" encoding="UTF-8" standalone="no"?>
<!DOCTYPE svg PUBLIC "-//W3C//DTD SVG 1.1//EN"
 "http://www.w3.org/Graphics/SVG/1.1/DTD/svg11.dtd">
<!-- Generated by graphviz version 2.40.1 (20161225.0304)
 -->
<!-- Title: G Pages: 1 -->
<svg width="392pt" height="59pt"
 viewBox="0.00 0.00 392.00 59.00" xmlns="http://www.w3.org/2000/svg" xmlns:xlink="http://www.w3.org/1999/xlink">
<g id="graph0" class="graph" transform="scale(1 1) rotate(0) translate(4 55)">
<title>G</title>
<polygon fill="#ffffff" stroke="transparent" points="-4,4 -4,-55 388,-55 388,4 -4,4"/>
<!-- share -->
<g id="node1" class="node">
<title>share</title>
<polygon fill="none" stroke="#000000" stroke-width="0" points="0,-.5 0,-50.5 384,-50.5 384,-.5 0,-.5"/>
<text text-anchor="start" x="8" y="-33.9" font-family="Times,serif" font-size="14.00" fill="#000000">0</text>
<text text-anchor="start" x="42" y="-33.9" font-family="Times,serif" font-size="14.00" fill="#000000">8</text>
<text text-anchor="start" x="59" y="-33.9" font-family="Times,serif" font-size="14.00" fill="#000000">9</text>
<text text-anchor="start" x="138" y="-33.9" font-family="Times,serif" font-size="14.00" fill="#000000">80</text>
<text text-anchor="start" x="272" y="-33.9" font-family="Times,serif" font-size="14.00" fill="#000000">200</text>
<text text-anchor="start" x="355" y="-33.9" font-family="Times,serif" font-size="14.00" fill="#000000">256</text>
<polygon fill="none" stroke="#000000" points="8,-4.5 8,-30.5 42,-30.5 42,-4.5 8,-4.5"/>
<text text-anchor="start" x="12.5631" y="-12.9" font-family="Times,serif" font-size="14.00" fill="#000000">NID</text>
<polygon fill="none" stroke="#000000" points="42,-4.5 42,-30.5 59,-30.5 59,-4.5 42,-4.5"/>
<text text-anchor="start" x="47" y="-12.9" font-family="Times,serif" font-size="14.00" fill="#000000">*</text>
<polygon fill="none" stroke="#000000" points="59,-4.5 59,-30.5 138,-30.5 138,-4.5 59,-4.5"/>
<text text-anchor="start" x="70.1171" y="-12.9" font-family="Times,serif" font-size="14.00" fill="#000000">end of tx2</text>
<polygon fill="none" stroke="#000000" points="138,-4.5 138,-30.5 192,-30.5 192,-4.5 138,-4.5"/>
<text text-anchor="start" x="142.8415" y="-12.9" font-family="Times,serif" font-size="14.00" fill="#000000">len(tx3)</text>
<polygon fill="none" stroke="#000000" points="192,-4.5 192,-30.5 272,-30.5 272,-4.5 192,-4.5"/>
<text text-anchor="start" x="223.0547" y="-12.9" font-family="Times,serif" font-size="14.00" fill="#000000">tx3</text>
<polygon fill="none" stroke="#000000" points="272,-4.5 272,-30.5 355,-30.5 355,-4.5 272,-4.5"/>
<text text-anchor="start" x="276.5722" y="-12.9" font-family="Times,serif" font-size="14.00" fill="#000000">zero&#45;padding</text>
</g>
</g>
</svg>
