<?xml version="1.0" encoding="UTF-8" standalone="no"?><!DOCTYPE svg PUBLIC "-//W3C//DTD SVG 1.1//EN" "http://www.w3.org/Graphics/SVG/1.1/DTD/svg11.dtd"><!-- Generated by graphviz version 2.40.1 (20161225.0304)
 --><!-- Title: G Pages: 1 --><svg xmlns="http://www.w3.org/2000/svg" xmlns:xlink="http://www.w3.org/1999/xlink" width="490pt" height="59pt" viewBox="0.00 0.00 490.00 59.00">
<g id="graph0" class="graph" transform="scale(1 1) rotate(0) translate(4 55)">
<title>G</title>
<polygon fill="#ffffff" stroke="transparent" points="-4,4 -4,-55 486,-55 486,4 -4,4"/>
<!-- share -->
<g id="node1" class="node">
<title>share</title>
<polygon fill="none" stroke="#000000" stroke-width="0" points="0,-.5 0,-50.5 482,-50.5 482,-.5 0,-.5"/>
<text text-anchor="start" x="8" y="-33.9" font-family="Times,serif" font-size="14.00" fill="#000000">0</text>
<text text-anchor="start" x="93" y="-33.9" font-family="Times,serif" font-size="14.00" fill="#000000">8</text>
<text text-anchor="start" x="153" y="-33.9" font-family="Times,serif" font-size="14.00" fill="#000000">9</text>
<text text-anchor="start" x="353" y="-33.9" font-family="Times,serif" font-size="14.00" fill="#000000">200</text>
<text text-anchor="start" x="453" y="-33.9" font-family="Times,serif" font-size="14.00" fill="#000000">512</text>
<polygon fill="none" stroke="#000000" points="8,-4.5 8,-30.5 93,-30.5 93,-4.5 8,-4.5"/>
<text text-anchor="start" x="12.6006" y="-12.9" font-family="Times,serif" font-size="14.00" fill="#000000">namespace id</text>
<polygon fill="none" stroke="#000000" points="93,-4.5 93,-30.5 153,-30.5 153,-4.5 93,-4.5"/>
<text text-anchor="start" x="97.9218" y="-12.9" font-family="Times,serif" font-size="14.00" fill="#000000">info byte</text>
<polygon fill="none" stroke="#000000" points="153,-4.5 153,-30.5 353,-30.5 353,-4.5 153,-4.5"/>
<text text-anchor="start" x="218.3948" y="-12.9" font-family="Times,serif" font-size="14.00" fill="#000000">end of msg1</text>
<polygon fill="none" stroke="#000000" points="353,-4.5 353,-30.5 453,-30.5 453,-4.5 353,-4.5"/>
<text text-anchor="start" x="366.6525" y="-12.9" font-family="Times,serif" font-size="14.00" fill="#000000">zero padding</text>
</g>
</g>
</svg>