<svg viewBox="-32 -192 320 256" style="background-color:white" xmlns="http://www.w3.org/2000/svg">
    <rect fill="#B0B0B0" stroke="#808080" x="0" y="0" width="128" height="32"/>
    <text text-anchor="middle" font-size="20" stroke="#000000" x="64" y="24">row roots</text>

    <rect fill="#B0B0B0" stroke="#808080" x="128" y="0" width="128" height="32"/>
    <text text-anchor="middle" font-size="20" stroke="#000000" x="192" y="24">col roots</text>

    <line stroke="#000000" stroke-width="2" x1="16"  x2="16"  y1="0" y2="-32"/>
    <line stroke="#000000" stroke-width="2" x1="48"  x2="48"  y1="0" y2="-32"/>
    <line stroke="#000000" stroke-width="2" x1="80"  x2="80"  y1="0" y2="-32"/>
    <line stroke="#000000" stroke-width="2" x1="112" x2="112" y1="0" y2="-32"/>
    <line stroke="#000000" stroke-width="2" x1="144" x2="144" y1="0" y2="-32"/>
    <line stroke="#000000" stroke-width="2" x1="176" x2="176" y1="0" y2="-32"/>
    <line stroke="#000000" stroke-width="2" x1="208" x2="208" y1="0" y2="-32"/>
    <line stroke="#000000" stroke-width="2" x1="240" x2="240" y1="0" y2="-32"/>

    <line stroke="#000000" stroke-width="2" x1="16"  x2="48"  y1="-32" y2="-32"/>
    <line stroke="#000000" stroke-width="2" x1="80"  x2="112" y1="-32" y2="-32"/>
    <line stroke="#000000" stroke-width="2" x1="144" x2="176" y1="-32" y2="-32"/>
    <line stroke="#000000" stroke-width="2" x1="208" x2="240" y1="-32" y2="-32"/>

    <line stroke="#000000" stroke-width="2" x1="32"  x2="32"  y1="-32" y2="-64"/>
    <line stroke="#000000" stroke-width="2" x1="96"  x2="96"  y1="-32" y2="-64"/>
    <line stroke="#000000" stroke-width="2" x1="160" x2="160" y1="-32" y2="-64"/>
    <line stroke="#000000" stroke-width="2" x1="224" x2="224" y1="-32" y2="-64"/>

    <line stroke="#000000" stroke-width="2" x1="32"  x2="96"  y1="-64" y2="-64"/>
    <line stroke="#000000" stroke-width="2" x1="160" x2="224" y1="-64" y2="-64"/>

    <line stroke="#000000" stroke-width="2" x1="64"  x2="64"  y1="-64" y2="-96"/>
    <line stroke="#000000" stroke-width="2" x1="192" x2="192" y1="-64" y2="-96"/>

    <line stroke="#000000" stroke-width="2" x1="64" x2="192" y1="-96" y2="-96"/>

    <line stroke="#000000" stroke-width="2" x1="128" x2="128" y1="-96" y2="-128"/>

    <rect fill="#B0B0B0" stroke="#808080" x="64" y="-160" width="128" height="32"/>
    <text text-anchor="middle" font-size="20" stroke="#000000" x="128" y="-135">data root</text>
</svg>
