<?xml version="1.0"?>
<!-- Generated by SVGo -->
<svg width="1000" height="130"
     xmlns="http://www.w3.org/2000/svg"
     xmlns:xlink="http://www.w3.org/1999/xlink">
<line x1="70" y1="20" x2="990" y2="20" style="stroke:black" />
<text x="10" y="25" style="text-anchor:start;fill:black" >node1</text>
<line x1="70" y1="50" x2="990" y2="50" style="stroke:black" />
<text x="10" y="55" style="text-anchor:start;fill:black" >node2</text>
<line x1="70" y1="80" x2="990" y2="80" style="stroke:black" />
<text x="10" y="85" style="text-anchor:start;fill:black" >node3</text>
<text x="10" y="130" style="text-anchor:start;fill:black" >Legend:</text>
<line x1="10" y1="150" x2="30" y2="150" style="stroke:red" />
<text x="35" y="155" style="text-anchor:start;fill:black" >vote</text>
<line x1="10" y1="170" x2="30" y2="170" style="stroke:blue" />
<text x="35" y="175" style="text-anchor:start;fill:black" >block</text>
<line x1="70" y1="20" x2="332" y2="50" style="stroke:red" />
<circle cx="70" cy="20" r="3" style="fill:red" />
<circle cx="332" cy="50" r="3" style="fill:red" />
<line x1="464" y1="80" x2="727" y2="20" style="stroke:red" />
<circle cx="464" cy="80" r="3" style="fill:red" />
<circle cx="727" cy="20" r="3" style="fill:red" />
<line x1="201" y1="20" x2="990" y2="50" style="stroke:blue" />
<circle cx="201" cy="20" r="3" style="fill:blue" />
<circle cx="990" cy="50" r="3" style="fill:blue" />
</svg>
<?xml version="1.0"?>
<!-- Generated by SVGo -->
<svg width="1000" height="210"
     xmlns="http://www.w3.org/2000/svg"
     xmlns:xlink="http://www.w3.org/1999/xlink">
</svg>
