<?xml version="1.0" encoding="UTF-8" standalone="no"?>
<!DOCTYPE svg PUBLIC "-//W3C//DTD SVG 1.1//EN"
 "http://www.w3.org/Graphics/SVG/1.1/DTD/svg11.dtd">
<!-- Generated by graphviz version 13.0.0 (20250608.1624)
 -->
<!-- Title: G Pages: 1 -->
<svg width="857pt" height="60pt"
 viewBox="0.00 0.00 857.00 60.00" xmlns="http://www.w3.org/2000/svg" xmlns:xlink="http://www.w3.org/1999/xlink">
<g id="graph0" class="graph" transform="scale(1 1) rotate(0) translate(4 56)">
<title>G</title>
<polygon fill="white" stroke="none" points="-4,4 -4,-56 853.25,-56 853.25,4 -4,4"/>
<!-- share -->
<g id="node1" class="node">
<title>share</title>
<polygon fill="none" stroke="black" stroke-width="0" points="0,-0.5 0,-51.5 849.25,-51.5 849.25,-0.5 0,-0.5"/>
<text xml:space="preserve" text-anchor="start" x="8" y="-34.2" font-family="Times,serif" font-size="14.00">0</text>
<text xml:space="preserve" text-anchor="start" x="121.5" y="-34.2" font-family="Times,serif" font-size="14.00">1</text>
<text xml:space="preserve" text-anchor="start" x="205.75" y="-34.2" font-family="Times,serif" font-size="14.00">29</text>
<text xml:space="preserve" text-anchor="start" x="264.5" y="-34.2" font-family="Times,serif" font-size="14.00">30</text>
<text xml:space="preserve" text-anchor="start" x="361.5" y="-34.2" font-family="Times,serif" font-size="14.00">34</text>
<text xml:space="preserve" text-anchor="start" x="404.5" y="-34.2" font-family="Times,serif" font-size="14.00">54</text>
<text xml:space="preserve" text-anchor="start" x="511.25" y="-34.2" font-family="Times,serif" font-size="14.00">58</text>
<text xml:space="preserve" text-anchor="start" x="621" y="-34.2" font-family="Times,serif" font-size="14.00">90</text>
<text xml:space="preserve" text-anchor="start" x="821" y="-34.2" font-family="Times,serif" font-size="14.00">512</text>
<polygon fill="none" stroke="black" points="8,-4.5 8,-31 121.5,-31 121.5,-4.5 8,-4.5"/>
<text xml:space="preserve" text-anchor="start" x="13" y="-12.7" font-family="Times,serif" font-size="14.00">namespace version</text>
<polygon fill="none" stroke="black" points="121.5,-4.5 121.5,-31 205.75,-31 205.75,-4.5 121.5,-4.5"/>
<text xml:space="preserve" text-anchor="start" x="126.5" y="-12.7" font-family="Times,serif" font-size="14.00">namespace id</text>
<polygon fill="none" stroke="black" points="205.75,-4.5 205.75,-31 264.5,-31 264.5,-4.5 205.75,-4.5"/>
<text xml:space="preserve" text-anchor="start" x="210.75" y="-12.7" font-family="Times,serif" font-size="14.00">info byte</text>
<polygon fill="none" stroke="black" points="264.5,-4.5 264.5,-31 361.5,-31 361.5,-4.5 264.5,-4.5"/>
<text xml:space="preserve" text-anchor="start" x="269.5" y="-12.7" font-family="Times,serif" font-size="14.00">sequence length</text>
<polygon fill="none" stroke="black" points="361.5,-4.5 361.5,-31 404.5,-31 404.5,-4.5 361.5,-4.5"/>
<text xml:space="preserve" text-anchor="start" x="366.5" y="-12.7" font-family="Times,serif" font-size="14.00">signer</text>
<polygon fill="none" stroke="black" points="404.5,-4.5 404.5,-31 511.25,-31 511.25,-4.5 404.5,-4.5"/>
<text xml:space="preserve" text-anchor="start" x="409.5" y="-12.7" font-family="Times,serif" font-size="14.00">fibre blob version</text>
<polygon fill="none" stroke="black" points="511.25,-4.5 511.25,-31 621,-31 621,-4.5 511.25,-4.5"/>
<text xml:space="preserve" text-anchor="start" x="516.25" y="-12.7" font-family="Times,serif" font-size="14.00">fibre commitment</text>
<polygon fill="none" stroke="black" points="621,-4.5 621,-31 821,-31 821,-4.5 621,-4.5"/>
<text xml:space="preserve" text-anchor="start" x="699.25" y="-12.7" font-family="Times,serif" font-size="14.00">padding</text>
</g>
</g>
</svg>
