<?xml version="1.0" encoding="UTF-8" standalone="no"?>
<!DOCTYPE svg PUBLIC "-//W3C//DTD SVG 1.1//EN"
 "http://www.w3.org/Graphics/SVG/1.1/DTD/svg11.dtd">
<!-- Generated by graphviz version 2.43.0 (0)
 -->
<!-- Title: G Pages: 1 -->
<svg width="697pt" height="356pt"
 viewBox="0.00 0.00 697.00 356.00" xmlns="http://www.w3.org/2000/svg" xmlns:xlink="http://www.w3.org/1999/xlink">
<g id="graph0" class="graph" transform="scale(1 1) rotate(0) translate(4 352)">
<title>G</title>
<polygon fill="white" stroke="transparent" points="-4,4 -4,-352 693,-352 693,4 -4,4"/>
<g id="clust1" class="cluster">
<title>cluster_block</title>
<polygon fill="none" stroke="black" points="8,-8 8,-340 681,-340 681,-8 8,-8"/>
<text text-anchor="middle" x="344.5" y="-324.8" font-family="Times,serif" font-size="14.00">block</text>
</g>
<g id="clust2" class="cluster">
<title>cluster_body</title>
<polygon fill="none" stroke="black" points="448,-16 448,-148 673,-148 673,-16 448,-16"/>
<text text-anchor="middle" x="560.5" y="-132.8" font-family="Times,serif" font-size="14.00">availableData</text>
</g>
<g id="clust3" class="cluster">
<title>cluster_lastcommit</title>
<polygon fill="none" stroke="black" points="503,-156 503,-233 618,-233 618,-156 503,-156"/>
<text text-anchor="middle" x="560.5" y="-217.8" font-family="Times,serif" font-size="14.00">lastCommit</text>
</g>
<g id="clust4" class="cluster">
<title>cluster_header</title>
<polygon fill="none" stroke="black" points="16,-16 16,-309 290,-309 290,-16 16,-16"/>
<text text-anchor="middle" x="153" y="-293.8" font-family="Times,serif" font-size="14.00">header</text>
</g>
<!-- struct3 -->
<g id="node1" class="node">
<title>struct3</title>
<polygon fill="none" stroke="black" points="456,-24 456,-116 665,-116 665,-24 456,-24"/>
<text text-anchor="middle" x="466.5" y="-66.3" font-family="Times,serif" font-size="14.00"> </text>
<polyline fill="none" stroke="black" points="477,-24 477,-116 "/>
<text text-anchor="middle" x="571" y="-100.8" font-family="Times,serif" font-size="14.00">transactionData</text>
<polyline fill="none" stroke="black" points="477,-93 665,-93 "/>
<text text-anchor="middle" x="571" y="-77.8" font-family="Times,serif" font-size="14.00">intermediateStateRoots</text>
<polyline fill="none" stroke="black" points="477,-70 665,-70 "/>
<text text-anchor="middle" x="571" y="-54.8" font-family="Times,serif" font-size="14.00">payForBlobData</text>
<polyline fill="none" stroke="black" points="477,-47 665,-47 "/>
<text text-anchor="middle" x="571" y="-31.8" font-family="Times,serif" font-size="14.00">messageData</text>
</g>
<!-- struct2 -->
<g id="node2" class="node">
<title>struct2</title>
<polygon fill="none" stroke="black" points="511,-165 511,-201 610,-201 610,-165 511,-165"/>
<text text-anchor="middle" x="560.5" y="-179.3" font-family="Times,serif" font-size="14.00">lastCommit</text>
</g>
<!-- struct1 -->
<g id="node3" class="node">
<title>struct1</title>
<polygon fill="none" stroke="black" points="24,-24.5 24,-277.5 282,-277.5 282,-24.5 24,-24.5"/>
<text text-anchor="middle" x="153" y="-262.3" font-family="Times,serif" font-size="14.00">version</text>
<polyline fill="none" stroke="black" points="24,-254.5 282,-254.5 "/>
<text text-anchor="middle" x="153" y="-239.3" font-family="Times,serif" font-size="14.00">chainID</text>
<polyline fill="none" stroke="black" points="24,-231.5 282,-231.5 "/>
<text text-anchor="middle" x="153" y="-216.3" font-family="Times,serif" font-size="14.00">height</text>
<polyline fill="none" stroke="black" points="24,-208.5 282,-208.5 "/>
<text text-anchor="middle" x="153" y="-193.3" font-family="Times,serif" font-size="14.00">timestamp</text>
<polyline fill="none" stroke="black" points="24,-185.5 282,-185.5 "/>
<text text-anchor="middle" x="153" y="-170.3" font-family="Times,serif" font-size="14.00">lastHeaderHash</text>
<polyline fill="none" stroke="black" points="24,-162.5 282,-162.5 "/>
<text text-anchor="middle" x="153" y="-147.3" font-family="Times,serif" font-size="14.00">lastCommitHash</text>
<polyline fill="none" stroke="black" points="24,-139.5 282,-139.5 "/>
<text text-anchor="middle" x="153" y="-124.3" font-family="Times,serif" font-size="14.00">consensusHash</text>
<polyline fill="none" stroke="black" points="24,-116.5 282,-116.5 "/>
<text text-anchor="middle" x="153" y="-101.3" font-family="Times,serif" font-size="14.00">stateCommitment</text>
<polyline fill="none" stroke="black" points="24,-93.5 282,-93.5 "/>
<text text-anchor="middle" x="153" y="-78.3" font-family="Times,serif" font-size="14.00">availableDataOriginalSharesUsed</text>
<polyline fill="none" stroke="black" points="24,-70.5 282,-70.5 "/>
<text text-anchor="middle" x="153" y="-55.3" font-family="Times,serif" font-size="14.00">availableDataRoot</text>
<polyline fill="none" stroke="black" points="24,-47.5 282,-47.5 "/>
<text text-anchor="middle" x="153" y="-32.3" font-family="Times,serif" font-size="14.00">proposerAddress</text>
</g>
<!-- struct1&#45;&gt;struct3 -->
<g id="edge2" class="edge">
<title>struct1:f9&#45;&gt;struct3</title>
<path fill="none" stroke="black" d="M283,-59C336.48,-59 395.74,-61.08 445.64,-63.43"/>
<polygon fill="black" stroke="black" points="445.65,-66.94 455.81,-63.92 445.99,-59.94 445.65,-66.94"/>
<text text-anchor="middle" x="369" y="-80.8" font-family="Times,serif" font-size="14.00">Merkle root of</text>
<text text-anchor="middle" x="369" y="-65.8" font-family="Times,serif" font-size="14.00">erasure&#45;coded data</text>
</g>
<!-- struct1&#45;&gt;struct3 -->
<!-- struct1&#45;&gt;struct2 -->
<g id="edge1" class="edge">
<title>struct1:f5&#45;&gt;struct2</title>
<path fill="none" stroke="black" d="M283,-151C358.52,-151 444.87,-162.92 500.69,-172.22"/>
<polygon fill="black" stroke="black" points="500.31,-175.7 510.75,-173.92 501.47,-168.8 500.31,-175.7"/>
</g>
</g>
</svg>
