<?xml version="1.0" encoding="UTF-8" standalone="no"?><!DOCTYPE svg PUBLIC "-//W3C//DTD SVG 1.1//EN" "http://www.w3.org/Graphics/SVG/1.1/DTD/svg11.dtd"><!-- Generated by graphviz version 2.40.1 (20161225.0304)
 --><!-- Title: G Pages: 1 --><svg xmlns="http://www.w3.org/2000/svg" xmlns:xlink="http://www.w3.org/1999/xlink" width="605pt" height="59pt" viewBox="0.00 0.00 605.00 59.00">
<g id="graph0" class="graph" transform="scale(1 1) rotate(0) translate(4 55)">
<title>G</title>
<polygon fill="#ffffff" stroke="transparent" points="-4,4 -4,-55 601,-55 601,4 -4,4"/>
<!-- share -->
<g id="node1" class="node">
<title>share</title>
<polygon fill="none" stroke="#000000" stroke-width="0" points="0,-.5 0,-50.5 597,-50.5 597,-.5 0,-.5"/>
<text text-anchor="start" x="8.5" y="-33.9" font-family="Times,serif" font-size="14.00" fill="#000000">0</text>
<text text-anchor="start" x="124.5" y="-33.9" font-family="Times,serif" font-size="14.00" fill="#000000">1</text>
<text text-anchor="start" x="209.5" y="-33.9" font-family="Times,serif" font-size="14.00" fill="#000000">29</text>
<text text-anchor="start" x="269.5" y="-33.9" font-family="Times,serif" font-size="14.00" fill="#000000">30</text>
<text text-anchor="start" x="368.5" y="-33.9" font-family="Times,serif" font-size="14.00" fill="#000000">34</text>
<text text-anchor="start" x="568.5" y="-33.9" font-family="Times,serif" font-size="14.00" fill="#000000">512</text>
<polygon fill="none" stroke="#000000" points="8.5,-4.5 8.5,-30.5 124.5,-30.5 124.5,-4.5 8.5,-4.5"/>
<text text-anchor="start" x="13.4407" y="-12.9" font-family="Times,serif" font-size="14.00" fill="#000000">namespace version</text>
<polygon fill="none" stroke="#000000" points="124.5,-4.5 124.5,-30.5 209.5,-30.5 209.5,-4.5 124.5,-4.5"/>
<text text-anchor="start" x="129.1006" y="-12.9" font-family="Times,serif" font-size="14.00" fill="#000000">namespace id</text>
<polygon fill="none" stroke="#000000" points="209.5,-4.5 209.5,-30.5 269.5,-30.5 269.5,-4.5 209.5,-4.5"/>
<text text-anchor="start" x="214.4218" y="-12.9" font-family="Times,serif" font-size="14.00" fill="#000000">info byte</text>
<polygon fill="none" stroke="#000000" points="269.5,-4.5 269.5,-30.5 368.5,-30.5 368.5,-4.5 269.5,-4.5"/>
<text text-anchor="start" x="274.1006" y="-12.9" font-family="Times,serif" font-size="14.00" fill="#000000">sequence length</text>
<polygon fill="none" stroke="#000000" points="368.5,-4.5 368.5,-30.5 568.5,-30.5 568.5,-4.5 368.5,-4.5"/>
<text text-anchor="start" x="452.5547" y="-12.9" font-family="Times,serif" font-size="14.00" fill="#000000">blob1</text>
</g>
</g>
</svg>